<?xml version="1.0" encoding="utf-8"?>
<!-- Generator: Adobe Illustrator 21.1.0, SVG Export Plug-In . SVG Version: 6.00 Build 0)  -->
<svg version="1.1" id="Layer_1" xmlns="http://www.w3.org/2000/svg" xmlns:xlink="http://www.w3.org/1999/xlink" x="0px" y="0px"
	 width="42px" height="42px" viewBox="0 0 42 42" style="enable-background:new 0 0 42 42;" xml:space="preserve">
<style type="text/css">
	.st0{fill:url(#SVGID_1_);}
</style>
<g>
	<g>
		<linearGradient id="SVGID_1_" gradientUnits="userSpaceOnUse" x1="21" y1="3.01" x2="21" y2="40.6802">
			<stop  offset="0" style="stop-color:#D1264E"/>
			<stop  offset="1" style="stop-color:#586FA1"/>
		</linearGradient>
		<path class="st0" d="M30.1,11.7C28.5,5,22.4,0,15.2,0C6.7,0.1,0,7,0,15.5v8.1C0,33.7,8.3,42,18.5,42h7.8C34.9,42,42,35.2,42,26.7
			C42,19.4,37,13.3,30.1,11.7z M17.9,22.7c-1.6,0-3-0.8-3.8-2.1l-6.6-11C7.3,9.2,7.2,8.8,7.2,8.4c0-1.4,1.2-2.6,2.6-2.6
			c0.7,0,1.3,0.3,1.8,0.7l9.5,8.4c0.9,0.8,1.4,2,1.4,3.3C22.4,20.6,20.4,22.7,17.9,22.7z M36,33.1c-1.6,1.8-3.9,3-6.5,3.1
			c-4.2,0.2-7.8-2.5-9-6.3c0,0,0,0,0,0c-0.2-0.7-0.4-1.5-0.4-2.3c0-0.5,0-1,0.1-1.5c0-0.2,0.1-0.3,0.3-0.4c1-0.3,1.9-0.9,2.7-1.5
			c0.8-0.7,1.4-1.6,1.9-2.6c0.1-0.2,0.2-0.3,0.4-0.3c2.1-0.1,4.4,0.6,6.3,2.3c0.2,0.2,0.6,0.7,1,1.1c0.5,0.4,1.2,0.9,2.3,0.8
			c0.8,0,1.6-0.4,2.1-0.9c0.3-0.2,0.7-0.1,0.8,0.2c0.2,0.7,0.3,1.3,0.3,2C38.3,29.2,37.5,31.4,36,33.1z"/>
	</g>
</g>.
</svg>
