<?xml version="1.0" encoding="utf-8"?>
<!-- Generator: Adobe Illustrator 22.0.1, SVG Export Plug-In . SVG Version: 6.00 Build 0)  -->
<svg version="1.1" id="Layer_1" xmlns="http://www.w3.org/2000/svg" xmlns:xlink="http://www.w3.org/1999/xlink" x="0px" y="0px"
	 width="26px" height="26px" viewBox="0 0 26 26" style="enable-background:new 0 0 26 26;" xml:space="preserve">
<style type="text/css">
	.st0{fill:#FFFFFF;}
	.st1{fill:url(#SVGID_1_);}
</style>
<path class="st0" d="M14.3,4"/>
<g>
	<g>
		<linearGradient id="SVGID_1_" gradientUnits="userSpaceOnUse" x1="13" y1="1.8633" x2="13" y2="25.1829">
			<stop  offset="0" style="stop-color:#C41E64"/>
			<stop  offset="1" style="stop-color:#8C508C"/>
		</linearGradient>
		<path class="st1" d="M16.3,26h-4.8C5.1,26,0,20.9,0,14.6l0-5C0,4.4,4.2,0,9.4,0c4.5,0,8.3,3.1,9.3,7.2c4.2,1,7.4,4.8,7.4,9.3
			C26,21.8,21.6,26,16.3,26z"/>
	</g>
	<g>
		<path class="st0" d="M8.7,12.7c0.5,0.8,1.4,1.3,2.4,1.3c1.5,0,2.8-1.2,2.8-2.8c0-0.8-0.3-1.5-0.9-2L7.2,4C6.9,3.7,6.5,3.6,6.1,3.6
			c-0.9,0-1.6,0.7-1.6,1.6c0,0.3,0.1,0.5,0.2,0.7L8.7,12.7z"/>
		<path class="st0" d="M12.4,17c0,0.5,0.1,1,0.3,1.4c0,0,0,0,0,0c0.7,2.4,3,4,5.6,3.9c1.6-0.1,3-0.8,4-1.9c0.9-1,1.4-2.4,1.4-3.9
			c0-0.4-0.1-0.9-0.2-1.3c-0.1-0.2-0.3-0.3-0.5-0.1c-0.3,0.3-0.8,0.5-1.3,0.6c-0.7,0-1.1-0.3-1.4-0.5c-0.3-0.2-0.5-0.5-0.6-0.7
			c-1.1-1.1-2.6-1.5-3.9-1.5c-0.1,0-0.2,0.1-0.2,0.2c-0.3,0.6-0.7,1.1-1.2,1.6c-0.5,0.4-1,0.7-1.7,0.9c-0.1,0-0.2,0.1-0.2,0.2
			C12.4,16.4,12.4,16.7,12.4,17z"/>
	</g>
</g>
</svg>
