<?xml version="1.0" encoding="utf-8"?>
<!-- Generator: Adobe Illustrator 21.1.0, SVG Export Plug-In . SVG Version: 6.00 Build 0)  -->
<svg version="1.1" id="Layer_1" xmlns="http://www.w3.org/2000/svg" xmlns:xlink="http://www.w3.org/1999/xlink" x="0px" y="0px"
	 width="128px" height="24px" viewBox="0 0 128 24" style="enable-background:new 0 0 128 24;" xml:space="preserve">
<style type="text/css">
	.st0{fill:#757575;}
</style>
<g>
	<path class="st0" d="M112.1,2c-1,0-1.9,0.8-1.9,1.9v6.3h-9.1V3.9c0-1-0.8-1.9-1.9-1.9s-1.9,0.8-1.9,1.9v16.3c0,1,0.8,1.9,1.9,1.9
		s1.9-0.8,1.9-1.9v-6.3h9.1v6.3c0,1,0.8,1.9,1.9,1.9c1,0,1.9-0.8,1.9-1.9V3.9C114,2.8,113.2,2,112.1,2z"/>
	<path class="st0" d="M43,7.6c-0.3-1.3-1-2.5-2-3.5C39.6,2.7,37.8,2,35.8,2c-3.9,0.1-7.1,3.3-7.1,7.3v3.8c0,4.9,4,8.8,8.8,8.8h3.7
		c4,0,7.3-3.2,7.4-7.2c0-2-0.7-3.8-2.1-5.2C45.6,8.6,44.4,7.9,43,7.6z M41.3,18.3h-3.7c-2.8,0-5.1-2.3-5.1-5.1V9.3
		c0-2,1.6-3.6,3.5-3.6c0,0,0,0,0.1,0c0.9,0,1.8,0.4,2.5,1c0.7,0.7,1,1.6,1,2.5v0.9c0,0.5,0.4,0.9,0.9,0.9h0.9c1,0,1.9,0.4,2.6,1.1
		c0.7,0.7,1,1.6,1,2.6C44.9,16.7,43.3,18.3,41.3,18.3z"/>
	<path class="st0" d="M66.3,15.2c2.1-1.2,3.5-3.5,3.5-6.1c0-3.9-3.3-7.1-7.2-7.1h-4.2c-2.5,0-4.5,2-4.5,4.5v13.6
		c0,1,0.8,1.9,1.8,1.9c1.1,0.1,1.9-0.8,1.9-1.9V6.5c0-0.4,0.4-0.8,0.8-0.8h4.2c1.8,0,3.4,1.4,3.4,3.3c0.1,1.9-1.5,3.5-3.4,3.5h-2.2
		c-0.8,0-1.2,1-0.7,1.6l7.4,7.4c0.4,0.4,0.8,0.5,1.3,0.5c0.5,0,1-0.2,1.3-0.5c0.7-0.7,0.7-1.9,0-2.6L66.3,15.2z"/>
	<path class="st0" d="M84.2,9.9c-1.4-0.3-3.9-1.1-3.9-2.3c0-0.2,0.1-1.9,3.3-1.9c1.8,0,3.1,0.6,4,1.1c0.9,0.5,2,0.2,2.5-0.7
		c0.5-0.9,0.2-2-0.7-2.5C88.2,2.8,86.2,2,83.7,2c-4.8,0-7,2.9-7,5.6c0,2.9,2.3,4.9,6.7,5.9c4.2,1,4,2.4,4,2.8
		c-0.1,0.7-0.7,1.9-3.7,1.9c-2.6,0-4.8-1.9-4.8-1.9c-0.8-0.7-1.9-0.6-2.6,0.1c-0.7,0.8-0.6,1.9,0.1,2.6c0.1,0.1,3.2,2.8,7.3,2.8
		c6.1,0,7.2-3.9,7.4-5.1c0.3-1.7-0.2-3.2-1.4-4.4C88.4,11.3,86.7,10.5,84.2,9.9z"/>
	<path class="st0" d="M20.3,2.1c-0.8-0.2-1.7,0.1-2.1,0.8l-5.4,9l-5.4-9C7,2.2,6.2,1.8,5.4,2.1C4.6,2.3,4,3,4,3.9v16.3
		c0,1,0.8,1.9,1.9,1.9s1.9-0.8,1.9-1.9v-9.6l3.5,5.9c0.3,0.6,0.9,0.9,1.6,0.9s1.3-0.3,1.6-0.9l3.5-5.9v9.6c0,1,0.8,1.9,1.9,1.9
		c1,0,1.9-0.8,1.9-1.9V3.9C21.6,3,21.1,2.3,20.3,2.1z"/>
</g>
</svg>
