<?xml version="1.0" encoding="utf-8"?>
<!-- Generator: Adobe Illustrator 21.1.0, SVG Export Plug-In . SVG Version: 6.00 Build 0)  -->
<svg version="1.1" id="Layer_1" xmlns="http://www.w3.org/2000/svg" xmlns:xlink="http://www.w3.org/1999/xlink" x="0px" y="0px"
	 width="180px" height="40px" viewBox="0 0 180 40" style="enable-background:new 0 0 180 40;" xml:space="preserve">
<style type="text/css">
	.st0{opacity:0.88;fill:#7C8494;}
	.st1{fill:#FFFFFF;}
</style>
<g>
	<path class="st0" d="M177,40H3c-1.7,0-3-1.3-3-3V3c0-1.7,1.3-3,3-3h174c1.7,0,3,1.3,3,3v34C180,38.7,178.7,40,177,40z"/>
	<g>
		<path class="st1" d="M34.7,25V15h4.7c2.2,0,3.4,1.5,3.4,3.2c0,1.7-1.2,3.2-3.4,3.2h-2.5V25H34.7z M40.5,18.2
			c0-0.8-0.6-1.4-1.5-1.4h-2.3v2.7h2.3C39.9,19.6,40.5,19,40.5,18.2z"/>
		<path class="st1" d="M43.3,21.4c0-2.1,1.4-3.8,3.8-3.8c2.4,0,3.8,1.7,3.8,3.8c0,2.1-1.4,3.8-3.8,3.8
			C44.7,25.2,43.3,23.4,43.3,21.4z M48.9,21.4c0-1.1-0.7-2.1-1.9-2.1c-1.2,0-1.8,1-1.8,2.1c0,1.1,0.7,2.1,1.8,2.1
			C48.3,23.5,48.9,22.5,48.9,21.4z"/>
		<path class="st1" d="M51.7,24.1l0.8-1.3c0.5,0.5,1.6,1,2.5,1c0.8,0,1.2-0.3,1.2-0.8c0-1.2-4.3-0.2-4.3-3.1c0-1.2,1.1-2.3,3-2.3
			c1.2,0,2.2,0.4,2.9,1l-0.8,1.3c-0.4-0.5-1.3-0.8-2.1-0.8c-0.7,0-1.1,0.3-1.1,0.7c0,1.1,4.3,0.2,4.3,3.1c0,1.3-1.1,2.3-3.1,2.3
			C53.7,25.2,52.5,24.8,51.7,24.1z"/>
		<path class="st1" d="M59.9,23.2v-3.8h-1.2v-1.7h1.2v-2h1.9v2h1.5v1.7h-1.5v3.3c0,0.5,0.2,0.8,0.7,0.8c0.3,0,0.6-0.1,0.7-0.2
			l0.4,1.4c-0.3,0.3-0.8,0.5-1.6,0.5C60.6,25.2,59.9,24.5,59.9,23.2z"/>
		<path class="st1" d="M68.8,23.2v-3.8h-1.2v-1.7h1.2v-2h1.9v2h1.5v1.7h-1.5v3.3c0,0.5,0.2,0.8,0.7,0.8c0.3,0,0.6-0.1,0.7-0.2
			l0.4,1.4c-0.3,0.3-0.8,0.5-1.6,0.5C69.5,25.2,68.8,24.5,68.8,23.2z"/>
		<path class="st1" d="M73,21.4c0-2.1,1.4-3.8,3.8-3.8c2.4,0,3.8,1.7,3.8,3.8c0,2.1-1.4,3.8-3.8,3.8C74.4,25.2,73,23.4,73,21.4z
			 M78.7,21.4c0-1.1-0.7-2.1-1.9-2.1c-1.2,0-1.8,1-1.8,2.1c0,1.1,0.7,2.1,1.8,2.1C78,23.5,78.7,22.5,78.7,21.4z"/>
		<path class="st1" d="M86,25V15H93v1.9h-4.9V19h4.8v1.9h-4.8V25H86z"/>
		<path class="st1" d="M98.8,25v-0.8c-0.5,0.6-1.3,0.9-2.3,0.9c-1.2,0-2.5-0.8-2.5-2.4c0-1.7,1.4-2.3,2.5-2.3c1,0,1.8,0.3,2.3,0.9
			v-1c0-0.7-0.6-1.2-1.6-1.2c-0.8,0-1.5,0.3-2.1,0.9l-0.7-1.3c0.9-0.8,2-1.1,3.2-1.1c1.6,0,3.2,0.7,3.2,2.7V25H98.8z M98.8,23.3
			v-0.9c-0.3-0.4-0.9-0.6-1.5-0.6c-0.8,0-1.4,0.4-1.4,1.1c0,0.7,0.6,1.1,1.4,1.1C97.9,23.9,98.5,23.7,98.8,23.3z"/>
		<path class="st1" d="M102.2,21.4c0-2.2,1.6-3.8,3.8-3.8c1.5,0,2.4,0.6,2.9,1.3l-1.2,1.2c-0.3-0.5-0.9-0.8-1.5-0.8
			c-1.2,0-2,0.8-2,2.1s0.8,2.1,2,2.1c0.7,0,1.2-0.3,1.5-0.8l1.2,1.2c-0.5,0.7-1.4,1.3-2.9,1.3C103.8,25.2,102.2,23.6,102.2,21.4z"/>
		<path class="st1" d="M109.6,21.4c0-2.1,1.5-3.8,3.8-3.8c2.2,0,3.6,1.6,3.6,4V22h-5.4c0.1,0.9,0.9,1.7,2.1,1.7
			c0.6,0,1.5-0.3,1.9-0.7l0.8,1.2c-0.7,0.7-1.9,1-3,1C111.3,25.2,109.6,23.7,109.6,21.4z M113.4,19.1c-1.2,0-1.7,0.9-1.8,1.6h3.6
			C115.1,20,114.7,19.1,113.4,19.1z"/>
		<path class="st1" d="M118.4,25V15h1.9v3.7c0.6-0.7,1.4-1.1,2.2-1.1c1.8,0,3.2,1.4,3.2,3.8c0,2.4-1.4,3.8-3.2,3.8
			c-0.9,0-1.7-0.4-2.2-1.1V25H118.4z M121.9,23.5c1.1,0,1.8-0.8,1.8-2.1c0-1.3-0.7-2.1-1.8-2.1c-0.6,0-1.3,0.4-1.6,0.8v2.6
			C120.6,23.1,121.3,23.5,121.9,23.5z"/>
		<path class="st1" d="M126.7,21.4c0-2.1,1.4-3.8,3.8-3.8c2.4,0,3.8,1.7,3.8,3.8c0,2.1-1.4,3.8-3.8,3.8
			C128.2,25.2,126.7,23.4,126.7,21.4z M132.4,21.4c0-1.1-0.7-2.1-1.9-2.1c-1.2,0-1.8,1-1.8,2.1c0,1.1,0.7,2.1,1.8,2.1
			C131.7,23.5,132.4,22.5,132.4,21.4z"/>
		<path class="st1" d="M135.3,21.4c0-2.1,1.4-3.8,3.8-3.8c2.4,0,3.8,1.7,3.8,3.8c0,2.1-1.4,3.8-3.8,3.8
			C136.8,25.2,135.3,23.4,135.3,21.4z M141,21.4c0-1.1-0.7-2.1-1.9-2.1c-1.2,0-1.8,1-1.8,2.1c0,1.1,0.7,2.1,1.8,2.1
			C140.3,23.5,141,22.5,141,21.4z"/>
		<path class="st1" d="M149.1,25l-1.9-2.8l-0.9,0.9V25h-1.9V15h1.9v6l2.7-3.2h2.3l-2.9,3.3l3,4H149.1z"/>
	</g>
</g>
</svg>
