<?xml version="1.0" encoding="utf-8"?>
<!-- Generator: Adobe Illustrator 21.1.0, SVG Export Plug-In . SVG Version: 6.00 Build 0)  -->
<svg version="1.1" id="Layer_1" xmlns="http://www.w3.org/2000/svg" xmlns:xlink="http://www.w3.org/1999/xlink" x="0px" y="0px"
	 width="600px" height="200px" viewBox="0 0 600 200" style="enable-background:new 0 0 600 200;" xml:space="preserve">
<style type="text/css">
	.st0{fill:none;}
	.st1{fill:#757575;}
	.st2{clip-path:url(#SVGID_2_);fill:#757575;}
	.st3{fill:#EDEEF0;}
	.st4{fill:#00A388;}
	.st5{clip-path:url(#SVGID_4_);fill:#757575;}
</style>
<g>
	<path class="st0" d="M50,0h24v24H50V0z"/>
	<path class="st1" d="M69,3h-8v6h10V5C71,3.9,70.1,3,69,3z M69,17h2v-2h-2V17z M69,21c1.1,0,2-0.9,2-2h-2V21z M69,13h2v-2h-2V13z
		 M61,21h2v-2h-2V21z M65,21h2v-2h-2V21z M53,9h2V7h-2V9z M53,13h2v-2h-2V13z M53,5h2V3C53.9,3,53,3.9,53,5z M53,17h2v-2h-2V17z
		 M55,21v-2h-2C53,20.1,53.9,21,55,21z M57,21h2v-2h-2V21z M57,5h2V3h-2V5z"/>
</g>
<path class="st0" d="M0,0h24v24H0V0z"/>
<g>
	<path class="st0" d="M0,100h24v24H0V100z"/>
	<path class="st1" d="M3,118h18v-2H3V118z M3,113h18v-2H3V113z M3,106v2h18v-2H3z"/>
</g>
<path class="st0" d="M100,0h24v24h-24V0z"/>
<path class="st1" d="M122,22h-18c-1.1,0-2-0.9-2-2v0h18C121.1,20,122,20.9,122,22L122,22z"/>
<path class="st1" d="M172,22h-18c-1.1,0-2-0.9-2-2v0h18C171.1,20,172,20.9,172,22L172,22z"/>
<path class="st1" d="M272,22h-18c-1.1,0-2-0.9-2-2v0h18C271.1,20,272,20.9,272,22L272,22z"/>
<path class="st1" d="M121.2,6.7l-3.8-3.8c-0.6-0.6-1.3-0.8-2.1-0.8c-0.7,0-1.5,0.3-2.1,0.8l-8.7,8.7c-0.4,0.4-0.6,0.9-0.6,1.4
	c0,0.5,0.2,1,0.6,1.4l3.6,3.6h5.4l7.6-7.6c0.5-0.5,0.8-1.2,0.8-1.9C122,7.9,121.7,7.2,121.2,6.7z M112.8,16h-3.7l-3.1-3.1l5.4-5.4
	l4.9,4.9L112.8,16z"/>
<g>
	<rect class="st0" width="50" height="50"/>
	<rect x="50" class="st0" width="50" height="50"/>
	<rect x="100" class="st0" width="50" height="50"/>
	<rect x="150" class="st0" width="50" height="50"/>
	<rect x="200" class="st0" width="50" height="50"/>
	<rect x="250" class="st0" width="50" height="50"/>
	<rect x="300" class="st0" width="50" height="50"/>
	<rect x="350" class="st0" width="50" height="50"/>
	<rect x="400" class="st0" width="50" height="50"/>
	<rect x="450" class="st0" width="50" height="50"/>
	<rect x="500" class="st0" width="50" height="50"/>
	<rect x="550" class="st0" width="50" height="50"/>
	<rect y="50" class="st0" width="50" height="50"/>
	<rect x="50" y="50" class="st0" width="50" height="50"/>
	<rect x="100" y="50" class="st0" width="50" height="50"/>
	<rect x="150" y="50" class="st0" width="50" height="50"/>
	<rect x="200" y="50" class="st0" width="50" height="50"/>
	<rect x="250" y="50" class="st0" width="50" height="50"/>
	<rect x="300" y="50" class="st0" width="50" height="50"/>
	<rect x="350" y="50" class="st0" width="50" height="50"/>
	<rect x="400" y="50" class="st0" width="50" height="50"/>
	<rect x="450" y="50" class="st0" width="50" height="50"/>
	<rect x="500" y="50" class="st0" width="50" height="50"/>
	<rect x="550" y="50" class="st0" width="50" height="50"/>
	<rect y="100" class="st0" width="50" height="50"/>
	<rect x="50" y="100" class="st0" width="50" height="50"/>
	<rect x="100" y="100" class="st0" width="50" height="50"/>
	<rect x="150" y="100" class="st0" width="50" height="50"/>
	<rect x="200" y="100" class="st0" width="50" height="50"/>
	<rect x="250" y="100" class="st0" width="50" height="50"/>
	<rect x="300" y="100" class="st0" width="50" height="50"/>
	<rect x="350" y="100" class="st0" width="50" height="50"/>
	<rect x="400" y="100" class="st0" width="50" height="50"/>
	<rect x="450" y="100" class="st0" width="50" height="50"/>
	<rect x="500" y="100" class="st0" width="50" height="50"/>
	<rect x="550" y="100" class="st0" width="50" height="50"/>
</g>
<path class="st0" d="M150,0h24v24h-24V0z"/>
<path class="st1" d="M166.6,10.4l-8.9-8.9l-1.4,1.4l2.4,2.4l-5.1,5.2c-0.6,0.6-0.6,1.5,0,2.1l5.5,5.5c0.3,0.3,0.7,0.4,1.1,0.4
	s0.8-0.1,1.1-0.4l5.5-5.5C167.2,12,167.2,11,166.6,10.4z M155.2,11.5l4.8-4.8l4.8,4.8H155.2z M169,13c0,0-2,2.2-2,3.5
	c0,1.1,0.9,2,2,2s2-0.9,2-2C171,15.2,169,13,169,13z"/>
<path class="st0" d="M200,0h24v24h-24V0z"/>
<path class="st1" d="M220.7,5.6l-2.3-2.3c-0.4-0.4-1-0.4-1.4,0l-3.1,3.1l-1.9-1.9l-1.4,1.4l1.4,1.4l-8.9,8.9V21h4.8l8.9-8.9l1.4,1.4
	l1.4-1.4l-1.9-1.9l3.1-3.1C221.1,6.7,221.1,6,220.7,5.6z M206.9,19l-1.9-1.9l8.1-8.1l1.9,1.9L206.9,19z"/>
<path class="st1" d="M266.9,8.6l-3.5-3.5l-9.4,9.4V18h3.5L266.9,8.6z M269.7,5.8c0.4-0.4,0.4-1,0-1.3l-2.2-2.2c-0.4-0.4-1-0.4-1.3,0
	l-1.8,1.8l3.5,3.5L269.7,5.8z"/>
<path class="st0" d="M250,0h24v24h-24V0z"/>
<path class="st1" d="M303.5,18.5l6-6l4,4l8.5-9.6l-1.4-1.4l-7.1,8l-4-4L302,17L303.5,18.5z"/>
<path class="st0" d="M300,0h24v24h-24V0z"/>
<g>
	<defs>
		<rect id="SVGID_1_" x="350" y="0" width="24" height="24"/>
	</defs>
	<clipPath id="SVGID_2_">
		<use xlink:href="#SVGID_1_"  style="overflow:visible;"/>
	</clipPath>
	<path class="st2" d="M352.5,4v3h5v12h3V7h5V4H352.5z M371.5,9h-9v3h3v7h3v-7h3V9z"/>
</g>
<g>
	<path class="st1" d="M403,3v18h18V3H403z M419,19h-14V5h14V19z"/>
	<path class="st0" d="M400,0h24v24h-24V0z"/>
</g>
<g>
	<path class="st0" d="M450,0h24v24h-24V0z"/>
	<path class="st1" d="M462,2c-5.5,0-10,4.5-10,10s4.5,10,10,10c5.5,0,10-4.5,10-10S467.5,2,462,2z M462,20c-4.4,0-8-3.6-8-8
		s3.6-8,8-8s8,3.6,8,8S466.4,20,462,20z"/>
</g>
<g>
	<path class="st0" d="M500,0h24v24h-24V0z"/>
	<path class="st1" d="M507,14c-1.7,0-3,1.3-3,3c0,1.3-1.2,2-2,2c0.9,1.2,2.5,2,4,2c2.2,0,4-1.8,4-4C510,15.3,508.7,14,507,14z
		 M520.7,4.6l-1.3-1.3c-0.4-0.4-1-0.4-1.4,0l-9,9l2.8,2.8l9-9C521.1,5.7,521.1,5,520.7,4.6z"/>
</g>
<g>
	<path class="st0" d="M400,50h24v24h-24V50z"/>
	<path class="st1" d="M405,67.5c0.8,0,1.5-0.7,1.5-1.5s-0.7-1.5-1.5-1.5s-1.5,0.7-1.5,1.5S404.2,67.5,405,67.5z M409,63
		c0.5,0,1-0.5,1-1s-0.5-1-1-1s-1,0.5-1,1S408.5,63,409,63z M409,59c0.5,0,1-0.5,1-1s-0.5-1-1-1s-1,0.5-1,1S408.5,59,409,59z M405,71
		h16l0,0c0-1.1-0.9-2-2-2h-16l0,0C403,70.1,403.9,71,405,71z M405,59.5c0.8,0,1.5-0.7,1.5-1.5s-0.7-1.5-1.5-1.5s-1.5,0.7-1.5,1.5
		S404.2,59.5,405,59.5z M405,63.5c0.8,0,1.5-0.7,1.5-1.5s-0.7-1.5-1.5-1.5s-1.5,0.7-1.5,1.5S404.2,63.5,405,63.5z M409,67
		c0.5,0,1-0.4,1-1s-0.5-1-1-1s-1,0.4-1,1S408.5,67,409,67z M417,66.5c0.3,0,0.5-0.2,0.5-0.5s-0.2-0.5-0.5-0.5s-0.5,0.2-0.5,0.5
		S416.7,66.5,417,66.5z M403,55L403,55l16,0c1.1,0,2-0.9,2-2v0h-16C403.9,53,403,53.9,403,55z M417,58.5c0.3,0,0.5-0.2,0.5-0.5
		s-0.2-0.5-0.5-0.5s-0.5,0.2-0.5,0.5S416.7,58.5,417,58.5z M417,62.5c0.3,0,0.5-0.2,0.5-0.5s-0.2-0.5-0.5-0.5s-0.5,0.2-0.5,0.5
		S416.7,62.5,417,62.5z M413,59c0.5,0,1-0.5,1-1s-0.5-1-1-1s-1,0.5-1,1S412.5,59,413,59z M413,63c0.5,0,1-0.5,1-1s-0.5-1-1-1
		s-1,0.5-1,1S412.5,63,413,63z M413,67c0.5,0,1-0.4,1-1s-0.5-1-1-1s-1,0.4-1,1S412.5,67,413,67z"/>
</g>
<g>
	<path class="st0" d="M450,50h24v24h-24V50z"/>
	<path class="st1" d="M467,65h2v-8c0-1.1-0.9-2-2-2h-8v2h8V65z M457,67V51h-2v4h-4v2h4v10c0,1.1,0.9,2,2,2h10v4h2v-4h4v-2H457z"/>
</g>
<g>
	<path class="st0" d="M274,50h-24v24h24V50z M274,50h-24v24h24V50z M250,74h24V50h-24V74z"/>
	<path class="st1" d="M267.7,58l-5.7-5.7l-5.7,5.7c-1.6,1.6-2.3,3.6-2.3,5.6s0.8,4.1,2.3,5.7c1.6,1.6,3.6,2.4,5.7,2.4
		s4.1-0.8,5.7-2.4c1.6-1.6,2.3-3.7,2.3-5.7S269.2,59.6,267.7,58z M256,64c0-2,0.6-3.3,1.8-4.4l4.2-4.3l4.2,4.4
		c1.1,1.1,1.8,2.3,1.8,4.3H256z"/>
</g>
<g>
	<path class="st1" d="M215.5,64h-0.8l-0.3-0.3c1-1.1,1.6-2.6,1.6-4.2c0-3.6-2.9-6.5-6.5-6.5s-6.5,2.9-6.5,6.5s2.9,6.5,6.5,6.5
		c1.6,0,3.1-0.6,4.2-1.6l0.3,0.3v0.8l5,5l1.5-1.5L215.5,64z M209.5,64c-2.5,0-4.5-2-4.5-4.5s2-4.5,4.5-4.5s4.5,2,4.5,4.5
		S212,64,209.5,64z"/>
	<path class="st0" d="M200,50h24v24h-24V50z"/>
</g>
<g>
	<path class="st1" d="M515.5,64h-0.8l-0.3-0.3c1-1.1,1.6-2.6,1.6-4.2c0-3.6-2.9-6.5-6.5-6.5c-3.6,0-6.5,2.9-6.5,6.5s2.9,6.5,6.5,6.5
		c1.6,0,3.1-0.6,4.2-1.6l0.3,0.3v0.8l5,5l1.5-1.5L515.5,64z"/>
	<path class="st0" d="M500,50h24v24h-24V50z"/>
</g>
<g>
	<path class="st1" d="M456,113c-0.5,0-1,0.4-1,1s0.5,1,1,1s1-0.4,1-1S456.5,113,456,113z M456,117c-0.5,0-1,0.4-1,1c0,0.5,0.5,1,1,1
		s1-0.5,1-1C457,117.4,456.5,117,456,117z M456,109c-0.5,0-1,0.4-1,1s0.5,1,1,1s1-0.4,1-1S456.5,109,456,109z M453,109.5
		c-0.3,0-0.5,0.2-0.5,0.5s0.2,0.5,0.5,0.5s0.5-0.2,0.5-0.5S453.3,109.5,453,109.5z M456,105c-0.5,0-1,0.4-1,1s0.5,1,1,1s1-0.4,1-1
		S456.5,105,456,105z M471,110.5c0.3,0,0.5-0.2,0.5-0.5s-0.2-0.5-0.5-0.5s-0.5,0.2-0.5,0.5S470.7,110.5,471,110.5z M464,107
		c0.5,0,1-0.4,1-1s-0.5-1-1-1s-1,0.4-1,1S463.5,107,464,107z M464,103.5c0.3,0,0.5-0.2,0.5-0.5s-0.2-0.5-0.5-0.5s-0.5,0.2-0.5,0.5
		S463.7,103.5,464,103.5z M453,113.5c-0.3,0-0.5,0.2-0.5,0.5s0.2,0.5,0.5,0.5s0.5-0.2,0.5-0.5S453.3,113.5,453,113.5z M460,120.5
		c-0.3,0-0.5,0.2-0.5,0.5s0.2,0.5,0.5,0.5s0.5-0.2,0.5-0.5S460.3,120.5,460,120.5z M460,103.5c0.3,0,0.5-0.2,0.5-0.5
		s-0.2-0.5-0.5-0.5s-0.5,0.2-0.5,0.5S459.7,103.5,460,103.5z M460,107c0.5,0,1-0.4,1-1s-0.5-1-1-1s-1,0.4-1,1S459.5,107,460,107z
		 M460,112.5c-0.8,0-1.5,0.7-1.5,1.5s0.7,1.5,1.5,1.5s1.5-0.7,1.5-1.5S460.8,112.5,460,112.5z M468,113c-0.5,0-1,0.4-1,1s0.5,1,1,1
		s1-0.4,1-1S468.5,113,468,113z M468,117c-0.5,0-1,0.4-1,1c0,0.5,0.5,1,1,1s1-0.5,1-1C469,117.4,468.5,117,468,117z M468,109
		c-0.5,0-1,0.4-1,1s0.5,1,1,1s1-0.4,1-1S468.5,109,468,109z M468,105c-0.5,0-1,0.4-1,1s0.5,1,1,1s1-0.4,1-1S468.5,105,468,105z
		 M471,113.5c-0.3,0-0.5,0.2-0.5,0.5s0.2,0.5,0.5,0.5s0.5-0.2,0.5-0.5S471.3,113.5,471,113.5z M464,117c-0.5,0-1,0.4-1,1
		c0,0.5,0.5,1,1,1s1-0.5,1-1C465,117.4,464.5,117,464,117z M464,120.5c-0.3,0-0.5,0.2-0.5,0.5s0.2,0.5,0.5,0.5s0.5-0.2,0.5-0.5
		S464.3,120.5,464,120.5z M460,108.5c-0.8,0-1.5,0.7-1.5,1.5s0.7,1.5,1.5,1.5s1.5-0.7,1.5-1.5S460.8,108.5,460,108.5z M460,117
		c-0.5,0-1,0.4-1,1c0,0.5,0.5,1,1,1s1-0.5,1-1C461,117.4,460.5,117,460,117z M464,112.5c-0.8,0-1.5,0.7-1.5,1.5s0.7,1.5,1.5,1.5
		s1.5-0.7,1.5-1.5S464.8,112.5,464,112.5z M464,108.5c-0.8,0-1.5,0.7-1.5,1.5s0.7,1.5,1.5,1.5s1.5-0.7,1.5-1.5
		S464.8,108.5,464,108.5z"/>
	<path class="st0" d="M450,100h24v24h-24V100z"/>
</g>
<g>
	<path class="st1" d="M165.8,59.4l3.2-3.2l-1.2-1.2l-3.2,3.2L165.8,59.4z M170.7,56.2c0,0.2-0.1,0.4-0.2,0.5l-14.1,14.1
		c-0.1,0.1-0.3,0.2-0.5,0.2s-0.4-0.1-0.5-0.2l-2.2-2.2c-0.1-0.1-0.2-0.3-0.2-0.5c0-0.2,0.1-0.4,0.2-0.5l14.1-14.1
		c0.1-0.1,0.3-0.2,0.5-0.2s0.4,0.1,0.5,0.2l2.2,2.2C170.6,55.8,170.7,56,170.7,56.2z M155.8,54.1l1.1,0.3l-1.1,0.3l-0.3,1.1
		l-0.3-1.1l-1.1-0.3l1.1-0.3l0.3-1.1L155.8,54.1z M159.7,55.9l2.2,0.7l-2.2,0.7l-0.7,2.2l-0.7-2.2l-2.2-0.7l2.2-0.7l0.7-2.2
		L159.7,55.9z M169.9,61.1l1.1,0.3l-1.1,0.3l-0.3,1.1l-0.3-1.1l-1.1-0.3l1.1-0.3l0.3-1.1L169.9,61.1z M162.9,54.1l1.1,0.3l-1.1,0.3
		l-0.3,1.1l-0.3-1.1l-1.1-0.3l1.1-0.3l0.3-1.1L162.9,54.1z"/>
	<path class="st0" d="M150,50h24v24h-24V50z"/>
</g>
<g>
	<rect x="550" y="50" class="st1" width="8" height="8"/>
	<rect x="558" y="58" class="st1" width="8" height="8"/>
</g>
<g>
	<rect x="558" y="50" transform="matrix(-1.836970e-16 1 -1 -1.836970e-16 616 -508)" class="st3" width="8" height="8"/>
	<rect x="550" y="58" transform="matrix(-1.836970e-16 1 -1 -1.836970e-16 616 -492)" class="st3" width="8" height="8"/>
</g>
<g>
	<path class="st0" d="M350,50h24v24h-24V50z"/>
	<path class="st1" d="M359,57h-2v2h2V57z M359,61h-2v2h2V61z M359,53c-1.1,0-2,0.9-2,2h2V53z M363,65h-2v2h2V65z M369,53v2h2
		C371,53.9,370.1,53,369,53z M363,53h-2v2h2V53z M359,67v-2h-2C357,66.1,357.9,67,359,67z M369,63h2v-2h-2V63z M369,59h2v-2h-2V59z
		 M369,67c1.1,0,2-0.9,2-2h-2V67z M355,57h-2v12c0,1.1,0.9,2,2,2h12v-2h-12V57z M365,55h2v-2h-2V55z M365,67h2v-2h-2V67z"/>
</g>
<path class="st1" d="M8.4,3.4L20,15h-8l-6,6V4.4C6,3.2,7.5,2.5,8.4,3.4z"/>
<path class="st0" d="M0,50h18v18H0V50z"/>
<path class="st1" d="M9,53.4c-3.8,0-7,2.3-8.2,5.6C2,62.3,5.2,64.6,9,64.6s7-2.3,8.2-5.6C16,55.7,12.8,53.4,9,53.4z M9,62.8
	c-2.1,0-3.8-1.7-3.8-3.8s1.7-3.8,3.8-3.8s3.8,1.7,3.8,3.8S11.1,62.8,9,62.8z M9,56.8c-1.2,0-2.2,1-2.2,2.2s1,2.2,2.2,2.2
	s2.2-1,2.2-2.2S10.2,56.8,9,56.8z"/>
<g>
	<path class="st0" d="M50,50h18v18H50V50z M50,50h18v18H50V50z M50,50h18v18H50V50z M50,50h18v18H50V50z"/>
	<path class="st1" d="M59,55.2c2.1,0,3.8,1.7,3.8,3.8c0,0.5-0.1,0.9-0.3,1.4l2.2,2.2c1.1-0.9,2-2.2,2.6-3.6
		c-1.3-3.3-4.5-5.6-8.2-5.6c-1,0-2.1,0.2-3,0.5l1.6,1.6C58.1,55.3,58.5,55.2,59,55.2z M51.5,53.2l1.7,1.7l0.3,0.3
		c-1.2,1-2.2,2.3-2.8,3.7c1.3,3.3,4.5,5.6,8.2,5.6c1.2,0,2.3-0.2,3.3-0.6l0.3,0.3l2.2,2.2l1-1L52.5,52.2L51.5,53.2z M55.6,57.3
		l1.2,1.2c0,0.2-0.1,0.3-0.1,0.5c0,1.2,1,2.2,2.2,2.2c0.2,0,0.3,0,0.5-0.1l1.2,1.2c-0.5,0.2-1.1,0.4-1.7,0.4c-2.1,0-3.8-1.7-3.8-3.8
		C55.2,58.4,55.4,57.9,55.6,57.3z M58.9,56.8l2.4,2.4l0-0.1c0-1.2-1-2.2-2.2-2.2L58.9,56.8z"/>
</g>
<g>
	<path class="st1" d="M106.5,63.2c0,0.8,0.7,1.5,1.5,1.5h6c0.8,0,1.5-0.7,1.5-1.5v-7h-9V63.2z M116.2,53h-2.6l-0.8-0.8h-3.8
		l-0.8,0.8h-2.6v1.5h10.5V53z"/>
	<path class="st0" d="M100,50h18v18h-18V50z"/>
</g>
<g>
	<path class="st1" d="M106,102c-1.1,0-2,0.9-2,2l0,16c0,1.1,0.9,2,2,2h12c1.1,0,2-0.9,2-2v-12l-6-6H106z M113,109v-5.5l5.5,5.5H113z
		"/>
	<path class="st0" d="M100,100h24v24h-24V100z"/>
</g>
<path class="st1" d="M221,119v-14c0-1.1-0.9-2-2-2h-14c-1.1,0-2,0.9-2,2v14c0,1.1,0.9,2,2,2h14C220.1,121,221,120.1,221,119z
	 M208.5,113.5l2.5,3l3.5-4.5l4.5,6h-14L208.5,113.5z"/>
<path class="st0" d="M200,100h24v24h-24V100z"/>
<g>
	<path class="st0" d="M250,100h24v24h-24V100z"/>
	<path class="st1" d="M262,118.5l-7.4-5.7l-1.6,1.3l9,7l9-7l-1.6-1.3C269.4,112.8,262,118.5,262,118.5z M262,116l7.4-5.7l1.6-1.3
		l-9-7l-9,7l1.6,1.3L262,116z"/>
</g>
<path class="st0" d="M400,100h24v24h-24V100z"/>
<path class="st1" d="M411,117h2v-6h-2V117z M412,102c-5.5,0-10,4.5-10,10c0,5.5,4.5,10,10,10s10-4.5,10-10
	C422,106.5,417.5,102,412,102z M412,120c-4.4,0-8-3.6-8-8c0-4.4,3.6-8,8-8s8,3.6,8,8C420,116.5,416.4,120,412,120z M411,109h2v-2h-2
	V109z"/>
<path class="st0" d="M50,100h24v24H50V100z"/>
<g>
	<path class="st4" d="M66.3,107.6c-0.8-3.2-3.7-5.6-7.1-5.6c-4,0-7.2,3.4-7.2,7.4v3.9c0,4.9,3.9,8.8,8.8,8.8h3.7
		c4.1,0,7.4-3.2,7.5-7.3C72,111.3,69.6,108.3,66.3,107.6z M60.5,112.8c-0.8,0-1.4-0.4-1.8-1l-3.1-5.2c-0.1-0.2-0.1-0.4-0.1-0.6
		c0-0.7,0.6-1.2,1.2-1.2c0.3,0,0.6,0.1,0.8,0.3l4.5,4c0.4,0.4,0.7,0.9,0.7,1.6C62.7,111.8,61.7,112.8,60.5,112.8z M69.1,117.8
		c-0.8,0.9-1.9,1.4-3.1,1.5c-2,0.1-3.7-1.2-4.3-3c0,0,0,0,0,0c-0.1-0.4-0.2-0.7-0.2-1.1c0-0.2,0-0.5,0-0.7c0-0.1,0.1-0.2,0.2-0.2
		c0.5-0.2,0.9-0.4,1.3-0.7c0.4-0.3,0.7-0.8,0.9-1.2c0-0.1,0.1-0.1,0.2-0.1c1-0.1,2.1,0.3,3,1.1c0.1,0.1,0.3,0.3,0.5,0.5
		c0.2,0.2,0.6,0.4,1.1,0.4c0.4,0,0.7-0.2,1-0.4c0.1-0.1,0.3-0.1,0.4,0.1c0.1,0.3,0.1,0.6,0.2,1C70.2,115.9,69.8,117,69.1,117.8z"/>
</g>
<g>
	<path class="st0" d="M150,100.1h24v24h-24V100.1z"/>
	<path class="st1" d="M170.5,111.1H169v-4c0-1.1-0.9-2-2-2h-4v-1.5c0-1.4-1.1-2.5-2.5-2.5s-2.5,1.1-2.5,2.5v1.5h-4c-1.1,0-2,0.9-2,2
		v3.8h1.5c1.5,0,2.7,1.2,2.7,2.7c0,1.5-1.2,2.7-2.7,2.7H152v3.8c0,1.1,0.9,2,2,2h3.8v-1.5c0-1.5,1.2-2.7,2.7-2.7s2.7,1.2,2.7,2.7
		v1.5h3.8c1.1,0,2-0.9,2-2v-4h1.5c1.4,0,2.5-1.1,2.5-2.5C173,112.2,171.9,111.1,170.5,111.1z"/>
</g>
<g>
	<path class="st0" d="M350,100h24v24h-24V100z"/>
	<path class="st1" d="M369.4,113c0-0.3,0.1-0.6,0.1-1s0-0.7-0.1-1l2.1-1.7c0.2-0.2,0.2-0.4,0.1-0.6l-2-3.5c-0.1-0.2-0.4-0.3-0.6-0.2
		l-2.5,1c-0.5-0.4-1.1-0.7-1.7-1l-0.4-2.7c0-0.2-0.2-0.4-0.5-0.4h-4c-0.2,0-0.5,0.2-0.5,0.4l-0.4,2.7c-0.6,0.2-1.2,0.6-1.7,1l-2.5-1
		c-0.2-0.1-0.5,0-0.6,0.2l-2,3.5c-0.1,0.2-0.1,0.5,0.1,0.6l2.1,1.6c0,0.3-0.1,0.7-0.1,1s0,0.7,0.1,1l-2.1,1.7
		c-0.2,0.2-0.2,0.4-0.1,0.6l2,3.5c0.1,0.2,0.4,0.3,0.6,0.2l2.5-1c0.5,0.4,1.1,0.7,1.7,1l0.4,2.7c0,0.2,0.2,0.4,0.5,0.4h4
		c0.2,0,0.5-0.2,0.5-0.4l0.4-2.7c0.6-0.2,1.2-0.6,1.7-1l2.5,1c0.2,0.1,0.5,0,0.6-0.2l2-3.5c0.1-0.2,0.1-0.5-0.1-0.6L369.4,113z
		 M362,115.5c-1.9,0-3.5-1.6-3.5-3.5s1.6-3.5,3.5-3.5s3.5,1.6,3.5,3.5S363.9,115.5,362,115.5z"/>
</g>
<g>
	<g>
		<defs>
			<rect id="SVGID_3_" x="300" y="100" width="24" height="24"/>
		</defs>
		<clipPath id="SVGID_4_">
			<use xlink:href="#SVGID_3_"  style="overflow:visible;"/>
		</clipPath>
		<path class="st5" d="M309,121c0,0.6,0.5,1,1,1h4c0.5,0,1-0.4,1-1v-1h-6V121z M312,102c-3.9,0-7,3.1-7,7c0,2.4,1.2,4.5,3,5.7v2.3
			c0,0.6,0.5,1,1,1h6c0.5,0,1-0.4,1-1v-2.3c1.8-1.3,3-3.4,3-5.7C319,105.1,315.9,102,312,102z"/>
	</g>
</g>
</svg>
